<svg xmlns="http://www.w3.org/2000/svg" xmlns:xlink="http://www.w3.org/1999/xlink" version="1.1" data-diagram-type="SEQUENCE" style="width:1087px;height:1374px;background:#FFFFFF;" width="1087px" height="1374px" viewBox="0 0 1087 1374" zoomAndPan="magnify" preserveAspectRatio="none" contentStyleType="text/css"><?plantuml 1.2026.7beta3?><defs/><g><g class="title" data-source-line="1"><text x="394.3511" y="27.9951" fill="#000000" font-size="14" lengthAdjust="spacing" textLength="292.0791" font-weight="700" font-family="Monospace">On-Chain Governance: Proposal Flow</text></g><rect x="305.3311" y="352.6875" width="576.856" height="191.6016" fill="#87CEFA" style="stroke:#000000;stroke-width:1.5;"/><rect x="621.1318" y="421.0859" width="251.0552" height="116.2031" fill="none" style="stroke:#000000;stroke-width:1.5;"/><rect x="412.0508" y="601.4219" width="659.7305" height="281.1953" fill="#90EE90" style="stroke:#000000;stroke-width:1.5;"/><rect x="621.1318" y="669.8203" width="364.1602" height="59.2656" fill="none" style="stroke:#000000;stroke-width:1.5;"/><rect x="621.1318" y="743.0859" width="345.46" height="59.2656" fill="none" style="stroke:#000000;stroke-width:1.5;"/><rect x="621.1318" y="816.3516" width="440.6494" height="59.2656" fill="none" style="stroke:#000000;stroke-width:1.5;"/><rect x="621.1318" y="1142.9453" width="169.5283" height="116.2031" fill="none" style="stroke:#000000;stroke-width:1.5;"/><g class="participant-lifeline" data-qualified-name="P" data-entity-uid="part1" id="part1-lifeline" data-source-line="12"><g><title>Proposers Collective</title><rect x="227.1655" y="134.8906" width="8" height="1141.2578" fill="#000000" fill-opacity="0.00000"/><line x1="231" y1="134.8906" x2="231" y2="1276.1484" style="stroke:#444444;stroke-width:0.5;stroke-dasharray:5,5;"/></g></g><g class="participant-lifeline" data-qualified-name="T" data-entity-uid="part2" id="part2-lifeline" data-source-line="13"><g><title>Triumvirate</title><rect x="359.6909" y="134.8906" width="8" height="1141.2578" fill="#000000" fill-opacity="0.00000"/><line x1="363.3311" y1="134.8906" x2="363.3311" y2="1276.1484" style="stroke:#444444;stroke-width:0.5;stroke-dasharray:5,5;"/></g></g><g class="participant-lifeline" data-qualified-name="RC" data-entity-uid="part3" id="part3-lifeline" data-source-line="14"><g><title>Review Collective</title><rect x="517.5913" y="134.8906" width="8" height="1141.2578" fill="#000000" fill-opacity="0.00000"/><line x1="521.0508" y1="134.8906" x2="521.0508" y2="1276.1484" style="stroke:#444444;stroke-width:0.5;stroke-dasharray:5,5;"/></g></g><g class="participant-lifeline" data-qualified-name="C" data-entity-uid="part4" id="part4-lifeline" data-source-line="15"><g><title>Chain</title><rect x="650.127" y="134.8906" width="8" height="1141.2578" fill="#000000" fill-opacity="0.00000"/><line x1="653.1318" y1="134.8906" x2="653.1318" y2="1276.1484" style="stroke:#444444;stroke-width:0.5;stroke-dasharray:5,5;"/></g></g><g class="participant participant-head" data-qualified-name="P" data-entity-uid="part1" id="part1-head" data-source-line="12"><text x="157" y="115.292" fill="#000000" font-size="14" lengthAdjust="spacing" textLength="142.3311" font-family="Monospace">Proposers Collective</text><text x="171.3726" y="131.5889" fill="#000000" font-size="14" lengthAdjust="spacing" textLength="113.5859" font-family="Monospace">(1-20 members)</text><ellipse cx="231.1655" cy="50.7969" rx="8" ry="8" fill="#E2E2F0" style="stroke:#181818;stroke-width:0.5;"/><path d="M231.1655,58.7969 L231.1655,85.7969 M218.1655,66.7969 L244.1655,66.7969 M231.1655,85.7969 L218.1655,100.7969 M231.1655,85.7969 L244.1655,100.7969" style="stroke:#181818;stroke-width:0.5;" fill="none"/></g><g class="participant participant-tail" data-qualified-name="P" data-entity-uid="part1" id="part1-tail" data-source-line="12"><text x="157" y="1288.1436" fill="#000000" font-size="14" lengthAdjust="spacing" textLength="142.3311" font-family="Monospace">Proposers Collective</text><text x="171.3726" y="1304.4404" fill="#000000" font-size="14" lengthAdjust="spacing" textLength="113.5859" font-family="Monospace">(1-20 members)</text><ellipse cx="231.1655" cy="1316.2422" rx="8" ry="8" fill="#E2E2F0" style="stroke:#181818;stroke-width:0.5;"/><path d="M231.1655,1324.2422 L231.1655,1351.2422 M218.1655,1332.2422 L244.1655,1332.2422 M231.1655,1351.2422 L218.1655,1366.2422 M231.1655,1351.2422 L244.1655,1366.2422" style="stroke:#181818;stroke-width:0.5;" fill="none"/></g><g class="participant participant-head" data-qualified-name="T" data-entity-uid="part2" id="part2-head" data-source-line="13"><text x="320.0308" y="115.292" fill="#000000" font-size="14" lengthAdjust="spacing" textLength="81.3203" font-family="Monospace">Triumvirate</text><text x="315.3311" y="131.5889" fill="#000000" font-size="14" lengthAdjust="spacing" textLength="90.7197" font-family="Monospace">(3 members)</text><ellipse cx="363.6909" cy="50.7969" rx="8" ry="8" fill="#E2E2F0" style="stroke:#181818;stroke-width:0.5;"/><path d="M363.6909,58.7969 L363.6909,85.7969 M350.6909,66.7969 L376.6909,66.7969 M363.6909,85.7969 L350.6909,100.7969 M363.6909,85.7969 L376.6909,100.7969" style="stroke:#181818;stroke-width:0.5;" fill="none"/></g><g class="participant participant-tail" data-qualified-name="T" data-entity-uid="part2" id="part2-tail" data-source-line="13"><text x="320.0308" y="1288.1436" fill="#000000" font-size="14" lengthAdjust="spacing" textLength="81.3203" font-family="Monospace">Triumvirate</text><text x="315.3311" y="1304.4404" fill="#000000" font-size="14" lengthAdjust="spacing" textLength="90.7197" font-family="Monospace">(3 members)</text><ellipse cx="363.6909" cy="1316.2422" rx="8" ry="8" fill="#E2E2F0" style="stroke:#181818;stroke-width:0.5;"/><path d="M363.6909,1324.2422 L363.6909,1351.2422 M350.6909,1332.2422 L376.6909,1332.2422 M363.6909,1351.2422 L350.6909,1366.2422 M363.6909,1351.2422 L376.6909,1366.2422" style="stroke:#181818;stroke-width:0.5;" fill="none"/></g><g class="participant participant-head" data-qualified-name="RC" data-entity-uid="part3" id="part3-head" data-source-line="14"><text x="456.7227" y="115.292" fill="#000000" font-size="14" lengthAdjust="spacing" textLength="123.7373" font-family="Monospace">Review Collective</text><text x="422.0508" y="131.5889" fill="#000000" font-size="14" lengthAdjust="spacing" textLength="193.0811" font-family="Monospace">(Economic ∪ Building, ≤32)</text><ellipse cx="521.5913" cy="50.7969" rx="8" ry="8" fill="#E2E2F0" style="stroke:#181818;stroke-width:0.5;"/><path d="M521.5913,58.7969 L521.5913,85.7969 M508.5913,66.7969 L534.5913,66.7969 M521.5913,85.7969 L508.5913,100.7969 M521.5913,85.7969 L534.5913,100.7969" style="stroke:#181818;stroke-width:0.5;" fill="none"/></g><g class="participant participant-tail" data-qualified-name="RC" data-entity-uid="part3" id="part3-tail" data-source-line="14"><text x="456.7227" y="1288.1436" fill="#000000" font-size="14" lengthAdjust="spacing" textLength="123.7373" font-family="Monospace">Review Collective</text><text x="422.0508" y="1304.4404" fill="#000000" font-size="14" lengthAdjust="spacing" textLength="193.0811" font-family="Monospace">(Economic ∪ Building, ≤32)</text><ellipse cx="521.5913" cy="1316.2422" rx="8" ry="8" fill="#E2E2F0" style="stroke:#181818;stroke-width:0.5;"/><path d="M521.5913,1324.2422 L521.5913,1351.2422 M508.5913,1332.2422 L534.5913,1332.2422 M521.5913,1351.2422 L508.5913,1366.2422 M521.5913,1351.2422 L534.5913,1366.2422" style="stroke:#181818;stroke-width:0.5;" fill="none"/></g><g class="participant participant-head" data-qualified-name="C" data-entity-uid="part4" id="part4-head" data-source-line="15"><text x="631.1318" y="131.5889" fill="#000000" font-size="14" lengthAdjust="spacing" textLength="39.9902" font-family="Monospace">Chain</text><path d="M636.127,82.5938 C636.127,72.5938 654.127,72.5938 654.127,72.5938 C654.127,72.5938 672.127,72.5938 672.127,82.5938 L672.127,108.5938 C672.127,118.5938 654.127,118.5938 654.127,118.5938 C654.127,118.5938 636.127,118.5938 636.127,108.5938 L636.127,82.5938" style="stroke:#181818;stroke-width:0.5;" fill="#E2E2F0"/><path d="M636.127,82.5938 C636.127,92.5938 654.127,92.5938 654.127,92.5938 C654.127,92.5938 672.127,92.5938 672.127,82.5938" style="stroke:#181818;stroke-width:0.5;" fill="none"/></g><g class="participant participant-tail" data-qualified-name="C" data-entity-uid="part4" id="part4-tail" data-source-line="15"><text x="631.1318" y="1288.1436" fill="#000000" font-size="14" lengthAdjust="spacing" textLength="39.9902" font-family="Monospace">Chain</text><path d="M636.127,1301.4453 C636.127,1291.4453 654.127,1291.4453 654.127,1291.4453 C654.127,1291.4453 672.127,1291.4453 672.127,1301.4453 L672.127,1327.4453 C672.127,1337.4453 654.127,1337.4453 654.127,1337.4453 C654.127,1337.4453 636.127,1337.4453 636.127,1327.4453 L636.127,1301.4453" style="stroke:#181818;stroke-width:0.5;" fill="#E2E2F0"/><path d="M636.127,1301.4453 C636.127,1311.4453 654.127,1311.4453 654.127,1311.4453 C654.127,1311.4453 672.127,1311.4453 672.127,1301.4453" style="stroke:#181818;stroke-width:0.5;" fill="none"/></g><rect x="0" y="165.457" width="1081.7813" height="3" fill="#EEEEEE" style="stroke:#EEEEEE;stroke-width:1;"/><line x1="0" y1="165.457" x2="1081.7813" y2="165.457" style="stroke:#000000;stroke-width:1;"/><line x1="0" y1="168.457" x2="1081.7813" y2="168.457" style="stroke:#000000;stroke-width:1;"/><rect x="455.3066" y="154.8906" width="171.168" height="23.1328" fill="#EEEEEE" style="stroke:#000000;stroke-width:2;"/><text x="461.3066" y="170.9575" fill="#000000" font-size="13" lengthAdjust="spacing" textLength="152.6421" font-weight="700" font-family="Monospace">Proposal Submission</text><path d="M5,193.0234 L5,233.0234 L459,233.0234 L459,203.0234 L449,193.0234 L5,193.0234" style="stroke:#181818;stroke-width:0.5;" fill="#FEFFDD"/><path d="M449,193.0234 L449,203.0234 L459,203.0234 L449,193.0234" style="stroke:#181818;stroke-width:0.5;" fill="#FEFFDD"/><text x="11" y="210.0903" fill="#000000" font-size="13" lengthAdjust="spacing" textLength="369.0337" font-family="Monospace">A member of the Proposers collective submits a root call</text><text x="11" y="225.2231" fill="#000000" font-size="13" lengthAdjust="spacing" textLength="433.0942" font-family="Monospace">(protocol change, runtime upgrade, or other privileged operation).</text><g class="message" data-entity-1="part1" data-entity-2="part4" id="msg1" data-source-line="22"><polygon points="642.127,255.4219,652.127,259.4219,642.127,263.4219,646.127,259.4219" fill="#444444" style="stroke:#444444;stroke-width:1;stroke-linejoin:miter;stroke-miterlimit:10;"/><line x1="231.1655" y1="259.4219" x2="648.127" y2="259.4219" style="stroke:#444444;stroke-width:1;"/><text x="238.1655" y="254.356" fill="#000000" font-size="13" lengthAdjust="spacing" textLength="139.7246" font-family="Monospace">submit_proposal(call)</text></g><path d="M532,272.4219 L532,297.4219 L775,297.4219 L775,282.4219 L765,272.4219 L532,272.4219" style="stroke:#181818;stroke-width:0.5;" fill="#FEFFDD"/><path d="M765,272.4219 L765,282.4219 L775,282.4219 L765,272.4219" style="stroke:#181818;stroke-width:0.5;" fill="#FEFFDD"/><text x="538" y="289.4888" fill="#000000" font-size="13" lengthAdjust="spacing" textLength="222.2695" font-family="Monospace">Proposal enters Triumvirate track.</text><rect x="0" y="323.1211" width="1081.7813" height="3" fill="#EEEEEE" style="stroke:#EEEEEE;stroke-width:1;"/><line x1="0" y1="323.1211" x2="1081.7813" y2="323.1211" style="stroke:#000000;stroke-width:1;"/><line x1="0" y1="326.1211" x2="1081.7813" y2="326.1211" style="stroke:#000000;stroke-width:1;"/><rect x="434.188" y="312.5547" width="213.4053" height="23.1328" fill="#EEEEEE" style="stroke:#000000;stroke-width:2;"/><text x="440.188" y="328.6216" fill="#000000" font-size="13" lengthAdjust="spacing" textLength="194.8794" font-weight="700" font-family="Monospace">Triumvirate Track (7 days)</text><path d="M305.3311,352.6875 L640.9268,352.6875 L640.9268,374.9531 L630.9268,384.9531 L305.3311,384.9531 L305.3311,352.6875" style="stroke:#000000;stroke-width:1.5;" fill="#EEEEEE"/><rect x="305.3311" y="352.6875" width="576.856" height="191.6016" fill="none" style="stroke:#000000;stroke-width:1.5;"/><text x="320.3311" y="365.7544" fill="#000000" font-size="13" lengthAdjust="spacing" textLength="166.6768" font-weight="700" font-family="Monospace">7-day decision window</text><text x="320.3311" y="380.8872" fill="#000000" font-size="13" lengthAdjust="spacing" textLength="290.5957" font-weight="700" font-family="Monospace">2-of-3 ayes advance · 2-of-3 nays reject</text><g class="message" data-entity-1="part2" data-entity-2="part4" id="msg2" data-source-line="30"><polygon points="642.127,402.0859,652.127,406.0859,642.127,410.0859,646.127,406.0859" fill="#444444" style="stroke:#444444;stroke-width:1;stroke-linejoin:miter;stroke-miterlimit:10;"/><line x1="363.6909" y1="406.0859" x2="648.127" y2="406.0859" style="stroke:#444444;stroke-width:1;"/><text x="370.6909" y="401.02" fill="#000000" font-size="13" lengthAdjust="spacing" textLength="90.8223" font-family="Monospace">vote(aye/nay)</text></g><path d="M621.1318,421.0859 L690.583,421.0859 L690.583,428.2188 L680.583,438.2188 L621.1318,438.2188 L621.1318,421.0859" style="stroke:#000000;stroke-width:1.5;" fill="#EEEEEE"/><rect x="621.1318" y="421.0859" width="251.0552" height="116.2031" fill="none" style="stroke:#000000;stroke-width:1.5;"/><text x="636.1318" y="434.1528" fill="#000000" font-size="13" lengthAdjust="spacing" textLength="24.4512" font-weight="700" font-family="Monospace">opt</text><text x="705.583" y="433.2964" fill="#000000" font-size="11" lengthAdjust="spacing" textLength="133.0903" font-weight="700" font-family="Monospace">[2-of-3 ayes reached]</text><g class="message" data-entity-1="part4" data-entity-2="part4" id="msg3" data-source-line="33"><line x1="654.127" y1="459.3516" x2="696.127" y2="459.3516" style="stroke:#444444;stroke-width:1;"/><line x1="696.127" y1="459.3516" x2="696.127" y2="472.3516" style="stroke:#444444;stroke-width:1;"/><line x1="655.127" y1="472.3516" x2="696.127" y2="472.3516" style="stroke:#444444;stroke-width:1;"/><polygon points="665.127,468.3516,655.127,472.3516,665.127,476.3516,661.127,472.3516" fill="#444444" style="stroke:#444444;stroke-width:1;stroke-linejoin:miter;stroke-miterlimit:10;"/><text x="661.127" y="454.2856" fill="#000000" font-size="13" lengthAdjust="spacing" textLength="157.0728" font-family="Monospace">advance to review track</text></g><line x1="621.1318" y1="481.3516" x2="872.187" y2="481.3516" style="stroke:#000000;stroke-width:1;stroke-dasharray:2,2;"/><text x="626.1318" y="491.562" fill="#000000" font-size="11" lengthAdjust="spacing" textLength="246.0552" font-weight="700" font-family="Monospace">[2-of-3 nays reached OR 7-day timeout]</text><g class="message" data-entity-1="part4" data-entity-2="part4" id="msg4" data-source-line="36"><line x1="654.127" y1="516.2891" x2="696.127" y2="516.2891" style="stroke:#444444;stroke-width:1;"/><line x1="696.127" y1="516.2891" x2="696.127" y2="529.2891" style="stroke:#444444;stroke-width:1;"/><line x1="655.127" y1="529.2891" x2="696.127" y2="529.2891" style="stroke:#444444;stroke-width:1;"/><polygon points="665.127,525.2891,655.127,529.2891,665.127,533.2891,661.127,529.2891" fill="#444444" style="stroke:#444444;stroke-width:1;stroke-linejoin:miter;stroke-miterlimit:10;"/><text x="661.127" y="511.2231" fill="#000000" font-size="13" lengthAdjust="spacing" textLength="37.1973" font-family="Monospace">reject</text></g><rect x="0" y="571.8555" width="1081.7813" height="3" fill="#EEEEEE" style="stroke:#EEEEEE;stroke-width:1;"/><line x1="0" y1="571.8555" x2="1081.7813" y2="571.8555" style="stroke:#000000;stroke-width:1;"/><line x1="0" y1="574.8555" x2="1081.7813" y2="574.8555" style="stroke:#000000;stroke-width:1;"/><rect x="482.8713" y="561.2891" width="116.0386" height="23.1328" fill="#EEEEEE" style="stroke:#000000;stroke-width:2;"/><text x="488.8713" y="577.356" fill="#000000" font-size="13" lengthAdjust="spacing" textLength="97.5127" font-weight="700" font-family="Monospace">Review Track</text><path d="M412.0508,601.4219 L865.7319,601.4219 L865.7319,623.6875 L855.7319,633.6875 L412.0508,633.6875 L412.0508,601.4219" style="stroke:#000000;stroke-width:1.5;" fill="#EEEEEE"/><rect x="412.0508" y="601.4219" width="659.7305" height="281.1953" fill="none" style="stroke:#000000;stroke-width:1.5;"/><text x="427.0508" y="614.4888" fill="#000000" font-size="13" lengthAdjust="spacing" textLength="208.311" font-weight="700" font-family="Monospace">24h initial delay / 2-day max</text><text x="427.0508" y="629.6216" fill="#000000" font-size="13" lengthAdjust="spacing" textLength="408.6812" font-weight="700" font-family="Monospace">Voter set: deduplicated union of Economic and Building</text><g class="message" data-entity-1="part3" data-entity-2="part4" id="msg5" data-source-line="43"><polygon points="642.127,650.8203,652.127,654.8203,642.127,658.8203,646.127,654.8203" fill="#444444" style="stroke:#444444;stroke-width:1;stroke-linejoin:miter;stroke-miterlimit:10;"/><line x1="521.5913" y1="654.8203" x2="648.127" y2="654.8203" style="stroke:#444444;stroke-width:1;"/><text x="528.5913" y="649.7544" fill="#000000" font-size="13" lengthAdjust="spacing" textLength="90.8223" font-family="Monospace">vote(aye/nay)</text></g><path d="M621.1318,669.8203 L690.583,669.8203 L690.583,676.9531 L680.583,686.9531 L621.1318,686.9531 L621.1318,669.8203" style="stroke:#000000;stroke-width:1.5;" fill="#EEEEEE"/><rect x="621.1318" y="669.8203" width="364.1602" height="59.2656" fill="none" style="stroke:#000000;stroke-width:1.5;"/><text x="636.1318" y="682.8872" fill="#000000" font-size="13" lengthAdjust="spacing" textLength="24.4512" font-weight="700" font-family="Monospace">opt</text><text x="705.583" y="682.0308" fill="#000000" font-size="11" lengthAdjust="spacing" textLength="73.3047" font-weight="700" font-family="Monospace">[Fast-track]</text><g class="message" data-entity-1="part4" data-entity-2="part4" id="msg6" data-source-line="46"><line x1="654.127" y1="708.0859" x2="696.127" y2="708.0859" style="stroke:#444444;stroke-width:1;"/><line x1="696.127" y1="708.0859" x2="696.127" y2="721.0859" style="stroke:#444444;stroke-width:1;"/><line x1="655.127" y1="721.0859" x2="696.127" y2="721.0859" style="stroke:#444444;stroke-width:1;"/><polygon points="665.127,717.0859,655.127,721.0859,665.127,725.0859,661.127,721.0859" fill="#444444" style="stroke:#444444;stroke-width:1;stroke-linejoin:miter;stroke-miterlimit:10;"/><text x="661.127" y="703.02" fill="#000000" font-size="13" lengthAdjust="spacing" textLength="312.165" font-family="Monospace">75% or more aye votes → execute at next block</text></g><path d="M621.1318,743.0859 L690.583,743.0859 L690.583,750.2188 L680.583,760.2188 L621.1318,760.2188 L621.1318,743.0859" style="stroke:#000000;stroke-width:1.5;" fill="#EEEEEE"/><rect x="621.1318" y="743.0859" width="345.46" height="59.2656" fill="none" style="stroke:#000000;stroke-width:1.5;"/><text x="636.1318" y="756.1528" fill="#000000" font-size="13" lengthAdjust="spacing" textLength="24.4512" font-weight="700" font-family="Monospace">opt</text><text x="705.583" y="755.2964" fill="#000000" font-size="11" lengthAdjust="spacing" textLength="51.1328" font-weight="700" font-family="Monospace">[Cancel]</text><g class="message" data-entity-1="part4" data-entity-2="part4" id="msg7" data-source-line="50"><line x1="654.127" y1="781.3516" x2="696.127" y2="781.3516" style="stroke:#444444;stroke-width:1;"/><line x1="696.127" y1="781.3516" x2="696.127" y2="794.3516" style="stroke:#444444;stroke-width:1;"/><line x1="655.127" y1="794.3516" x2="696.127" y2="794.3516" style="stroke:#444444;stroke-width:1;"/><polygon points="665.127,790.3516,655.127,794.3516,665.127,798.3516,661.127,794.3516" fill="#444444" style="stroke:#444444;stroke-width:1;stroke-linejoin:miter;stroke-miterlimit:10;"/><text x="661.127" y="776.2856" fill="#000000" font-size="13" lengthAdjust="spacing" textLength="293.4648" font-family="Monospace">51% or more nay votes → proposal cancelled</text></g><path d="M621.1318,816.3516 L690.583,816.3516 L690.583,823.4844 L680.583,833.4844 L621.1318,833.4844 L621.1318,816.3516" style="stroke:#000000;stroke-width:1.5;" fill="#EEEEEE"/><rect x="621.1318" y="816.3516" width="440.6494" height="59.2656" fill="none" style="stroke:#000000;stroke-width:1.5;"/><text x="636.1318" y="829.4185" fill="#000000" font-size="13" lengthAdjust="spacing" textLength="24.4512" font-weight="700" font-family="Monospace">opt</text><text x="705.583" y="828.562" fill="#000000" font-size="11" lengthAdjust="spacing" textLength="119.5552" font-weight="700" font-family="Monospace">[Delay adjustment]</text><g class="message" data-entity-1="part4" data-entity-2="part4" id="msg8" data-source-line="54"><line x1="654.127" y1="854.6172" x2="696.127" y2="854.6172" style="stroke:#444444;stroke-width:1;"/><line x1="696.127" y1="854.6172" x2="696.127" y2="867.6172" style="stroke:#444444;stroke-width:1;"/><line x1="655.127" y1="867.6172" x2="696.127" y2="867.6172" style="stroke:#444444;stroke-width:1;"/><polygon points="665.127,863.6172,655.127,867.6172,665.127,871.6172,661.127,867.6172" fill="#444444" style="stroke:#444444;stroke-width:1;stroke-linejoin:miter;stroke-miterlimit:10;"/><text x="661.127" y="849.5513" fill="#000000" font-size="13" lengthAdjust="spacing" textLength="388.6543" font-family="Monospace">recompute delay (ease-out curve) as nay votes accumulate</text></g><path d="M659,894.6172 L659,979.6172 L1020,979.6172 L1020,904.6172 L1010,894.6172 L659,894.6172" style="stroke:#181818;stroke-width:0.5;" fill="#FEFFDD"/><path d="M1010,894.6172 L1010,904.6172 L1020,904.6172 L1010,894.6172" style="stroke:#181818;stroke-width:0.5;" fill="#FEFFDD"/><text x="665" y="911.6841" fill="#000000" font-size="13" lengthAdjust="spacing" textLength="340.7612" font-family="Monospace">Voter eligibility is snapshotted at review-track open.</text><text x="665" y="926.8169" fill="#000000" font-size="13" lengthAdjust="spacing" textLength="340.7866" font-family="Monospace">Collective rotations during the period do not change</text><text x="665" y="941.9497" fill="#000000" font-size="13" lengthAdjust="spacing" textLength="244.0293" font-family="Monospace">who may vote or shift the thresholds.</text><text x="665" y="957.0825" fill="#000000" font-size="13" lengthAdjust="spacing" textLength="338.6792" font-family="Monospace">When the adjusted delay drops below elapsed time,</text><text x="665" y="972.2153" fill="#000000" font-size="13" lengthAdjust="spacing" textLength="115.3687" font-family="Monospace">execution begins.</text><rect x="0" y="1005.8477" width="1081.7813" height="3" fill="#EEEEEE" style="stroke:#EEEEEE;stroke-width:1;"/><line x1="0" y1="1005.8477" x2="1081.7813" y2="1005.8477" style="stroke:#000000;stroke-width:1;"/><line x1="0" y1="1008.8477" x2="1081.7813" y2="1008.8477" style="stroke:#000000;stroke-width:1;"/><rect x="495.6777" y="995.2813" width="90.4258" height="23.1328" fill="#EEEEEE" style="stroke:#000000;stroke-width:2;"/><text x="501.6777" y="1011.3481" fill="#000000" font-size="13" lengthAdjust="spacing" textLength="71.8999" font-weight="700" font-family="Monospace">Execution</text><path d="M473,1033.4141 L473,1088.4141 L835,1088.4141 L835,1043.4141 L825,1033.4141 L473,1033.4141" style="stroke:#181818;stroke-width:0.5;" fill="#FEFFDD"/><path d="M825,1033.4141 L825,1043.4141 L835,1043.4141 L825,1033.4141" style="stroke:#181818;stroke-width:0.5;" fill="#FEFFDD"/><text x="479" y="1050.481" fill="#000000" font-size="13" lengthAdjust="spacing" textLength="341.0913" font-family="Monospace">After the delay period expires (and if not cancelled),</text><text x="479" y="1065.6138" fill="#000000" font-size="13" lengthAdjust="spacing" textLength="302.5166" font-family="Monospace">the chain executes the call with root privilege.</text><text x="479" y="1080.7466" fill="#000000" font-size="13" lengthAdjust="spacing" textLength="335.0928" font-family="Monospace">If execution fails, it is not retried and is cleaned up.</text><g class="message" data-entity-1="part4" data-entity-2="part4" id="msg9" data-source-line="73"><line x1="654.127" y1="1114.9453" x2="696.127" y2="1114.9453" style="stroke:#444444;stroke-width:1;"/><line x1="696.127" y1="1114.9453" x2="696.127" y2="1127.9453" style="stroke:#444444;stroke-width:1;"/><line x1="655.127" y1="1127.9453" x2="696.127" y2="1127.9453" style="stroke:#444444;stroke-width:1;"/><polygon points="665.127,1123.9453,655.127,1127.9453,665.127,1131.9453,661.127,1127.9453" fill="#444444" style="stroke:#444444;stroke-width:1;stroke-linejoin:miter;stroke-miterlimit:10;"/><text x="661.127" y="1109.8794" fill="#000000" font-size="13" lengthAdjust="spacing" textLength="137.6934" font-family="Monospace">execute(call as Root)</text></g><path d="M621.1318,1142.9453 L685.5747,1142.9453 L685.5747,1150.0781 L675.5747,1160.0781 L621.1318,1160.0781 L621.1318,1142.9453" style="stroke:#000000;stroke-width:1.5;" fill="#EEEEEE"/><rect x="621.1318" y="1142.9453" width="169.5283" height="116.2031" fill="none" style="stroke:#000000;stroke-width:1.5;"/><text x="636.1318" y="1156.0122" fill="#000000" font-size="13" lengthAdjust="spacing" textLength="19.4429" font-weight="700" font-family="Monospace">alt</text><text x="700.5747" y="1155.1558" fill="#000000" font-size="11" lengthAdjust="spacing" textLength="58.0293" font-weight="700" font-family="Monospace">[success]</text><g class="message" data-entity-1="part4" data-entity-2="part4" id="msg10" data-source-line="75"><line x1="654.127" y1="1181.2109" x2="696.127" y2="1181.2109" style="stroke:#444444;stroke-width:1;"/><line x1="696.127" y1="1181.2109" x2="696.127" y2="1194.2109" style="stroke:#444444;stroke-width:1;"/><line x1="655.127" y1="1194.2109" x2="696.127" y2="1194.2109" style="stroke:#444444;stroke-width:1;"/><polygon points="665.127,1190.2109,655.127,1194.2109,665.127,1198.2109,661.127,1194.2109" fill="#444444" style="stroke:#444444;stroke-width:1;stroke-linejoin:miter;stroke-miterlimit:10;"/><text x="661.127" y="1176.145" fill="#000000" font-size="13" lengthAdjust="spacing" textLength="51.4541" font-family="Monospace">cleanup</text></g><line x1="621.1318" y1="1203.2109" x2="790.6602" y2="1203.2109" style="stroke:#000000;stroke-width:1;stroke-dasharray:2,2;"/><text x="626.1318" y="1213.4214" fill="#000000" font-size="11" lengthAdjust="spacing" textLength="50.5205" font-weight="700" font-family="Monospace">[failure]</text><g class="message" data-entity-1="part4" data-entity-2="part4" id="msg11" data-source-line="77"><line x1="654.127" y1="1238.1484" x2="696.127" y2="1238.1484" style="stroke:#444444;stroke-width:1;"/><line x1="696.127" y1="1238.1484" x2="696.127" y2="1251.1484" style="stroke:#444444;stroke-width:1;"/><line x1="655.127" y1="1251.1484" x2="696.127" y2="1251.1484" style="stroke:#444444;stroke-width:1;"/><polygon points="665.127,1247.1484,655.127,1251.1484,665.127,1255.1484,661.127,1251.1484" fill="#444444" style="stroke:#444444;stroke-width:1;stroke-linejoin:miter;stroke-miterlimit:10;"/><text x="661.127" y="1233.0825" fill="#000000" font-size="13" lengthAdjust="spacing" textLength="117.5332" font-family="Monospace">cleanup (no retry)</text></g><?plantuml-src XLNDQXn74BxtKnGoWLtObMF9HY1GG9fO9g3OGXR9HH1wksjsskhfdlJFhaJ8DSHNFqDEUO7SyoXwabJrpExEAf3CiUllgw--gaacMOGFRburqZXuvrSOd7GAJ-4w-Cv7QU7I-hKGyTwuJWRPGcoazclZbb1B6t5aqLZBRDEbT-czR16-zyx7JggnJyIVCr81-4K0N9aQhup32nyqXifR7-35w_AHzLg6P9Jff4l_xo3L_JBux7Jlj6vCGd8v3y6lz-D-5KAgH0y7VOiO8f27HPNC2k_SvDNyw6jeiLsGPNe0CiBr9k8scDokJ9297O_tlMutNZUuChZUJ_fM4HcjKV3q-vzmaOtLnE0CdZx_SNpKXzzKGiia5p8Y79HvbETAYBEptJG-vaLhOZJUmTcPS3uXyD08ulc01dmDgK7OTQUsG21oU8eW8NYVG4bhnQGBFdbo0jL8jyGPXEoIeG7cRXcafWVgobFE05qmAsDnYHfyXyG30PaU2dGQ68kuXlatK9qETNxg1jWJBZGL8xoLsBQ4BZ7A4RUG0irpb9Of6DjlsGwJ4z3oCKwP2Hv-1o-kpB997-yVBsn6E9cJcLIfJE6BD4l2lND7Sr_FZq4-8l6WLont-Fil69uTPOI0duWmqi_jqC-AK4meuYMPgG-WxXEC4mMKga5D5e1g2DeaJvxCHHAbBmv7sfnd5KiyVBWPOFC0V4vx2RUmY9X2Jkcwi3DehYU6-DWZv5r0T73qkW7ZJ3B4kKPBDLuI1AxLoeSxzmEr66W_qobPTUwiKKIrXkoOF1BLLiAIAcyaJ61kglyYwLB6DE_x7hToykOhLbNh0pA19JR2qszV01zGPPgnJE3m8S72-XBBFGyvAwRLxkLxysgNZygFycqqI6BdA5k6D4hsRQ52wayvffQq-8nnvTkEuVICJP3MSqvp0PN32gUyeRjoKgdSPYlBwNaseoBzmDDWBYlHqutMBCt2M9CUmKI8JdQnyObvf_vxrVJiyRwvGx4xAhJ1gUnV19q3tsFUUbfAupLepuipBBHODvvctADabc9ZwbJSKnEG2beT3yMF3Oc47tik24BVioO28ooG_WE4bm2IXTKv4_seM1uBN1eNdstiswrvxrHLuhpcthbKNs40ZG-T8JWmOO6PkkzWCxJfJ720AZ-gGIEnvE3RGikTclwcRK_KeVYkXXt4MXeRPs0I4ysf0wPWc6YkHbVIedIizsxSnaO8GyLooCgrfb9J8MsYKwSKnYXseYcPQEPboRbi3lXlCqoSBnXeLwZUFm00?></g></svg>